<mxfile host="app.diagrams.net" agent="Mozilla/5.0 (Windows NT 10.0; Win64; x64) AppleWebKit/537.36 (KHTML, like Gecko) Chrome/129.0.0.0 Safari/537.36" version="24.7.16">
  <diagram name="Page-1" id="AwJXyXjozSyKXWjftIWc">
    <mxGraphModel dx="1050" dy="565" grid="1" gridSize="10" guides="1" tooltips="1" connect="1" arrows="1" fold="1" page="1" pageScale="1" pageWidth="850" pageHeight="1100" math="0" shadow="0">
      <root>
        <mxCell id="0" />
        <mxCell id="1" parent="0" />
        <mxCell id="u3rFeUjqHD8T7D-4szF2-3" style="edgeStyle=orthogonalEdgeStyle;rounded=0;orthogonalLoop=1;jettySize=auto;html=1;" edge="1" parent="1" source="u3rFeUjqHD8T7D-4szF2-2" target="u3rFeUjqHD8T7D-4szF2-9">
          <mxGeometry relative="1" as="geometry">
            <mxPoint x="360" y="140" as="targetPoint" />
          </mxGeometry>
        </mxCell>
        <mxCell id="u3rFeUjqHD8T7D-4szF2-2" value="&lt;h1 style=&quot;margin-top: 0px;&quot;&gt;&lt;font style=&quot;font-size: 14px;&quot;&gt;&amp;nbsp; Disease DNA sequences&amp;nbsp; &amp;nbsp; &amp;nbsp; &amp;nbsp;from NCBI (.fasta)&lt;/font&gt;&lt;/h1&gt;" style="text;html=1;whiteSpace=wrap;overflow=hidden;rounded=0;" vertex="1" parent="1">
          <mxGeometry x="90" y="100" width="180" height="80" as="geometry" />
        </mxCell>
        <mxCell id="u3rFeUjqHD8T7D-4szF2-4" value="" style="endArrow=none;dashed=1;html=1;rounded=0;entryX=1;entryY=0;entryDx=0;entryDy=0;" edge="1" parent="1" target="u3rFeUjqHD8T7D-4szF2-2">
          <mxGeometry width="50" height="50" relative="1" as="geometry">
            <mxPoint x="90" y="100" as="sourcePoint" />
            <mxPoint x="140" y="50" as="targetPoint" />
          </mxGeometry>
        </mxCell>
        <mxCell id="u3rFeUjqHD8T7D-4szF2-5" value="" style="endArrow=none;dashed=1;html=1;rounded=0;exitX=0;exitY=1;exitDx=0;exitDy=0;" edge="1" parent="1" source="u3rFeUjqHD8T7D-4szF2-2">
          <mxGeometry width="50" height="50" relative="1" as="geometry">
            <mxPoint x="220" y="230" as="sourcePoint" />
            <mxPoint x="270" y="180" as="targetPoint" />
          </mxGeometry>
        </mxCell>
        <mxCell id="u3rFeUjqHD8T7D-4szF2-6" value="" style="endArrow=none;dashed=1;html=1;rounded=0;exitX=0;exitY=1;exitDx=0;exitDy=0;" edge="1" parent="1" source="u3rFeUjqHD8T7D-4szF2-2">
          <mxGeometry width="50" height="50" relative="1" as="geometry">
            <mxPoint x="40" y="150" as="sourcePoint" />
            <mxPoint x="90" y="100" as="targetPoint" />
          </mxGeometry>
        </mxCell>
        <mxCell id="u3rFeUjqHD8T7D-4szF2-7" value="" style="endArrow=none;dashed=1;html=1;rounded=0;" edge="1" parent="1" target="u3rFeUjqHD8T7D-4szF2-2">
          <mxGeometry width="50" height="50" relative="1" as="geometry">
            <mxPoint x="90" y="180" as="sourcePoint" />
            <mxPoint x="140" y="130" as="targetPoint" />
          </mxGeometry>
        </mxCell>
        <mxCell id="u3rFeUjqHD8T7D-4szF2-8" value="" style="endArrow=none;dashed=1;html=1;rounded=0;entryX=1;entryY=0;entryDx=0;entryDy=0;" edge="1" parent="1" target="u3rFeUjqHD8T7D-4szF2-2">
          <mxGeometry width="50" height="50" relative="1" as="geometry">
            <mxPoint x="270" y="180" as="sourcePoint" />
            <mxPoint x="320" y="130" as="targetPoint" />
          </mxGeometry>
        </mxCell>
        <mxCell id="u3rFeUjqHD8T7D-4szF2-9" value="" style="rounded=1;whiteSpace=wrap;html=1;" vertex="1" parent="1">
          <mxGeometry x="340" y="102.5" width="190" height="75" as="geometry" />
        </mxCell>
        <mxCell id="u3rFeUjqHD8T7D-4szF2-11" style="edgeStyle=orthogonalEdgeStyle;rounded=0;orthogonalLoop=1;jettySize=auto;html=1;exitX=0.5;exitY=1;exitDx=0;exitDy=0;entryX=0.5;entryY=0;entryDx=0;entryDy=0;" edge="1" parent="1" source="u3rFeUjqHD8T7D-4szF2-10" target="u3rFeUjqHD8T7D-4szF2-15">
          <mxGeometry relative="1" as="geometry">
            <mxPoint x="170" y="270" as="targetPoint" />
            <Array as="points">
              <mxPoint x="435" y="220" />
              <mxPoint x="225" y="220" />
            </Array>
          </mxGeometry>
        </mxCell>
        <mxCell id="u3rFeUjqHD8T7D-4szF2-10" value="&lt;h1 style=&quot;margin-top: 0px;&quot;&gt;&lt;font style=&quot;font-size: 18px;&quot;&gt;Create combined&amp;nbsp; &amp;nbsp; &amp;nbsp; &amp;nbsp; &amp;nbsp; &amp;nbsp; dataset&lt;/font&gt;&lt;/h1&gt;" style="text;html=1;whiteSpace=wrap;overflow=hidden;rounded=0;" vertex="1" parent="1">
          <mxGeometry x="356.25" y="103.75" width="157.5" height="72.5" as="geometry" />
        </mxCell>
        <mxCell id="u3rFeUjqHD8T7D-4szF2-16" style="edgeStyle=orthogonalEdgeStyle;rounded=0;orthogonalLoop=1;jettySize=auto;html=1;exitX=1;exitY=0.75;exitDx=0;exitDy=0;entryX=1;entryY=0.75;entryDx=0;entryDy=0;" edge="1" parent="1" source="u3rFeUjqHD8T7D-4szF2-14" target="u3rFeUjqHD8T7D-4szF2-15">
          <mxGeometry relative="1" as="geometry" />
        </mxCell>
        <mxCell id="u3rFeUjqHD8T7D-4szF2-14" value="" style="rounded=0;whiteSpace=wrap;html=1;" vertex="1" parent="1">
          <mxGeometry x="145" y="280" width="165" height="80" as="geometry" />
        </mxCell>
        <mxCell id="u3rFeUjqHD8T7D-4szF2-28" style="edgeStyle=orthogonalEdgeStyle;rounded=0;orthogonalLoop=1;jettySize=auto;html=1;" edge="1" parent="1">
          <mxGeometry relative="1" as="geometry">
            <mxPoint x="446.25" y="710" as="targetPoint" />
            <mxPoint x="225" y="496" as="sourcePoint" />
          </mxGeometry>
        </mxCell>
        <mxCell id="u3rFeUjqHD8T7D-4szF2-15" value="&lt;b&gt;&lt;font style=&quot;font-size: 14px;&quot;&gt;One-hot Encoding&lt;/font&gt;&lt;/b&gt;" style="text;html=1;align=center;verticalAlign=middle;whiteSpace=wrap;rounded=0;" vertex="1" parent="1">
          <mxGeometry x="140" y="280" width="170" height="80" as="geometry" />
        </mxCell>
        <mxCell id="u3rFeUjqHD8T7D-4szF2-17" value="" style="endArrow=classic;html=1;rounded=0;" edge="1" parent="1">
          <mxGeometry width="50" height="50" relative="1" as="geometry">
            <mxPoint x="430" y="220" as="sourcePoint" />
            <mxPoint x="640" y="280" as="targetPoint" />
            <Array as="points">
              <mxPoint x="640" y="220" />
            </Array>
          </mxGeometry>
        </mxCell>
        <mxCell id="u3rFeUjqHD8T7D-4szF2-24" value="" style="edgeStyle=orthogonalEdgeStyle;rounded=0;orthogonalLoop=1;jettySize=auto;html=1;" edge="1" parent="1" source="u3rFeUjqHD8T7D-4szF2-18" target="u3rFeUjqHD8T7D-4szF2-23">
          <mxGeometry relative="1" as="geometry" />
        </mxCell>
        <mxCell id="u3rFeUjqHD8T7D-4szF2-18" value="" style="rounded=0;whiteSpace=wrap;html=1;" vertex="1" parent="1">
          <mxGeometry x="565" y="280" width="155" height="80" as="geometry" />
        </mxCell>
        <mxCell id="u3rFeUjqHD8T7D-4szF2-19" value="&lt;b&gt;&lt;font style=&quot;font-size: 14px;&quot;&gt;Generating variable length k-mers&lt;/font&gt;&lt;/b&gt;&amp;nbsp;" style="text;html=1;align=center;verticalAlign=middle;whiteSpace=wrap;rounded=0;" vertex="1" parent="1">
          <mxGeometry x="565" y="290" width="150" height="60" as="geometry" />
        </mxCell>
        <mxCell id="u3rFeUjqHD8T7D-4szF2-26" value="" style="edgeStyle=orthogonalEdgeStyle;rounded=0;orthogonalLoop=1;jettySize=auto;html=1;" edge="1" parent="1" source="u3rFeUjqHD8T7D-4szF2-23" target="u3rFeUjqHD8T7D-4szF2-25">
          <mxGeometry relative="1" as="geometry" />
        </mxCell>
        <mxCell id="u3rFeUjqHD8T7D-4szF2-23" value="&lt;b&gt;&lt;font style=&quot;font-size: 14px;&quot;&gt;Word2Vec&lt;/font&gt;&lt;/b&gt;" style="rounded=0;whiteSpace=wrap;html=1;" vertex="1" parent="1">
          <mxGeometry x="582.5" y="410" width="120" height="60" as="geometry" />
        </mxCell>
        <mxCell id="u3rFeUjqHD8T7D-4szF2-25" value="&lt;b&gt;&lt;font style=&quot;font-size: 14px;&quot;&gt;Calculate Vector- Embeddings for the sequences&lt;/font&gt;&lt;/b&gt;" style="rounded=0;whiteSpace=wrap;html=1;" vertex="1" parent="1">
          <mxGeometry x="552.5" y="520" width="180" height="80" as="geometry" />
        </mxCell>
        <mxCell id="u3rFeUjqHD8T7D-4szF2-38" style="edgeStyle=orthogonalEdgeStyle;rounded=0;orthogonalLoop=1;jettySize=auto;html=1;" edge="1" parent="1" source="u3rFeUjqHD8T7D-4szF2-27">
          <mxGeometry relative="1" as="geometry">
            <mxPoint x="436.25" y="880" as="targetPoint" />
          </mxGeometry>
        </mxCell>
        <mxCell id="u3rFeUjqHD8T7D-4szF2-27" value="&lt;b&gt;&lt;font style=&quot;font-size: 18px;&quot;&gt;CNN Model&lt;/font&gt;&lt;/b&gt;" style="rounded=1;whiteSpace=wrap;html=1;" vertex="1" parent="1">
          <mxGeometry x="358.75" y="710" width="155" height="80" as="geometry" />
        </mxCell>
        <mxCell id="u3rFeUjqHD8T7D-4szF2-31" value="" style="endArrow=none;html=1;rounded=0;entryX=0.5;entryY=1;entryDx=0;entryDy=0;" edge="1" parent="1" target="u3rFeUjqHD8T7D-4szF2-15">
          <mxGeometry width="50" height="50" relative="1" as="geometry">
            <mxPoint x="225" y="497" as="sourcePoint" />
            <mxPoint x="225" y="362" as="targetPoint" />
          </mxGeometry>
        </mxCell>
        <mxCell id="u3rFeUjqHD8T7D-4szF2-34" value="" style="endArrow=none;html=1;rounded=0;" edge="1" parent="1">
          <mxGeometry width="50" height="50" relative="1" as="geometry">
            <mxPoint x="640" y="660" as="sourcePoint" />
            <mxPoint x="640" y="600" as="targetPoint" />
          </mxGeometry>
        </mxCell>
        <mxCell id="u3rFeUjqHD8T7D-4szF2-37" value="" style="endArrow=none;html=1;rounded=0;" edge="1" parent="1">
          <mxGeometry width="50" height="50" relative="1" as="geometry">
            <mxPoint x="447" y="660" as="sourcePoint" />
            <mxPoint x="640" y="660" as="targetPoint" />
          </mxGeometry>
        </mxCell>
        <mxCell id="u3rFeUjqHD8T7D-4szF2-39" value="&lt;font style=&quot;font-size: 14px;&quot;&gt;&lt;b&gt;Dengue&lt;/b&gt;&lt;/font&gt;" style="text;html=1;align=center;verticalAlign=middle;whiteSpace=wrap;rounded=0;" vertex="1" parent="1">
          <mxGeometry x="160" y="880" width="120" height="80" as="geometry" />
        </mxCell>
        <mxCell id="u3rFeUjqHD8T7D-4szF2-41" value="&lt;b&gt;&lt;font style=&quot;font-size: 14px;&quot;&gt;Hepatitis B&lt;/font&gt;&lt;/b&gt;" style="text;html=1;align=center;verticalAlign=middle;whiteSpace=wrap;rounded=0;" vertex="1" parent="1">
          <mxGeometry x="376.25" y="880" width="120" height="80" as="geometry" />
        </mxCell>
        <mxCell id="u3rFeUjqHD8T7D-4szF2-42" value="&lt;b&gt;&lt;font style=&quot;font-size: 14px;&quot;&gt;MERS&lt;/font&gt;&lt;/b&gt;" style="text;html=1;align=center;verticalAlign=middle;whiteSpace=wrap;rounded=0;" vertex="1" parent="1">
          <mxGeometry x="600" y="880" width="120" height="80" as="geometry" />
        </mxCell>
        <mxCell id="u3rFeUjqHD8T7D-4szF2-43" value="" style="endArrow=none;dashed=1;html=1;rounded=0;entryX=1;entryY=0;entryDx=0;entryDy=0;" edge="1" parent="1" target="u3rFeUjqHD8T7D-4szF2-39">
          <mxGeometry width="50" height="50" relative="1" as="geometry">
            <mxPoint x="160" y="880" as="sourcePoint" />
            <mxPoint x="210" y="830" as="targetPoint" />
          </mxGeometry>
        </mxCell>
        <mxCell id="u3rFeUjqHD8T7D-4szF2-44" value="" style="endArrow=none;dashed=1;html=1;rounded=0;exitX=1;exitY=1;exitDx=0;exitDy=0;" edge="1" parent="1" source="u3rFeUjqHD8T7D-4szF2-39">
          <mxGeometry width="50" height="50" relative="1" as="geometry">
            <mxPoint x="230" y="930" as="sourcePoint" />
            <mxPoint x="280" y="880" as="targetPoint" />
          </mxGeometry>
        </mxCell>
        <mxCell id="u3rFeUjqHD8T7D-4szF2-45" value="" style="endArrow=none;dashed=1;html=1;rounded=0;exitX=0;exitY=1;exitDx=0;exitDy=0;" edge="1" parent="1" source="u3rFeUjqHD8T7D-4szF2-39">
          <mxGeometry width="50" height="50" relative="1" as="geometry">
            <mxPoint x="110" y="930" as="sourcePoint" />
            <mxPoint x="160" y="880" as="targetPoint" />
          </mxGeometry>
        </mxCell>
        <mxCell id="u3rFeUjqHD8T7D-4szF2-46" value="" style="endArrow=none;dashed=1;html=1;rounded=0;exitX=0;exitY=1;exitDx=0;exitDy=0;" edge="1" parent="1" source="u3rFeUjqHD8T7D-4szF2-39">
          <mxGeometry width="50" height="50" relative="1" as="geometry">
            <mxPoint x="230" y="1010" as="sourcePoint" />
            <mxPoint x="280" y="960" as="targetPoint" />
          </mxGeometry>
        </mxCell>
        <mxCell id="u3rFeUjqHD8T7D-4szF2-47" value="" style="endArrow=none;dashed=1;html=1;rounded=0;exitX=1;exitY=1;exitDx=0;exitDy=0;" edge="1" parent="1" source="u3rFeUjqHD8T7D-4szF2-41">
          <mxGeometry width="50" height="50" relative="1" as="geometry">
            <mxPoint x="446.25" y="930" as="sourcePoint" />
            <mxPoint x="496.25" y="880" as="targetPoint" />
          </mxGeometry>
        </mxCell>
        <mxCell id="u3rFeUjqHD8T7D-4szF2-48" value="" style="endArrow=none;dashed=1;html=1;rounded=0;entryX=1;entryY=0;entryDx=0;entryDy=0;" edge="1" parent="1" target="u3rFeUjqHD8T7D-4szF2-41">
          <mxGeometry width="50" height="50" relative="1" as="geometry">
            <mxPoint x="376.25" y="880" as="sourcePoint" />
            <mxPoint x="426.25" y="830" as="targetPoint" />
          </mxGeometry>
        </mxCell>
        <mxCell id="u3rFeUjqHD8T7D-4szF2-49" value="" style="endArrow=none;dashed=1;html=1;rounded=0;exitX=0;exitY=1;exitDx=0;exitDy=0;" edge="1" parent="1" source="u3rFeUjqHD8T7D-4szF2-41">
          <mxGeometry width="50" height="50" relative="1" as="geometry">
            <mxPoint x="326.25" y="930" as="sourcePoint" />
            <mxPoint x="376.25" y="880" as="targetPoint" />
          </mxGeometry>
        </mxCell>
        <mxCell id="u3rFeUjqHD8T7D-4szF2-50" value="" style="endArrow=none;dashed=1;html=1;rounded=0;exitX=0;exitY=1;exitDx=0;exitDy=0;" edge="1" parent="1" source="u3rFeUjqHD8T7D-4szF2-41">
          <mxGeometry width="50" height="50" relative="1" as="geometry">
            <mxPoint x="446.25" y="1010" as="sourcePoint" />
            <mxPoint x="496.25" y="960" as="targetPoint" />
          </mxGeometry>
        </mxCell>
        <mxCell id="u3rFeUjqHD8T7D-4szF2-51" value="" style="endArrow=none;dashed=1;html=1;rounded=0;entryX=1;entryY=0;entryDx=0;entryDy=0;" edge="1" parent="1" target="u3rFeUjqHD8T7D-4szF2-42">
          <mxGeometry width="50" height="50" relative="1" as="geometry">
            <mxPoint x="600" y="880" as="sourcePoint" />
            <mxPoint x="650" y="830" as="targetPoint" />
          </mxGeometry>
        </mxCell>
        <mxCell id="u3rFeUjqHD8T7D-4szF2-52" value="" style="endArrow=none;dashed=1;html=1;rounded=0;exitX=1;exitY=1;exitDx=0;exitDy=0;" edge="1" parent="1" source="u3rFeUjqHD8T7D-4szF2-42">
          <mxGeometry width="50" height="50" relative="1" as="geometry">
            <mxPoint x="670" y="930" as="sourcePoint" />
            <mxPoint x="720" y="880" as="targetPoint" />
          </mxGeometry>
        </mxCell>
        <mxCell id="u3rFeUjqHD8T7D-4szF2-53" value="" style="endArrow=none;dashed=1;html=1;rounded=0;exitX=0;exitY=1;exitDx=0;exitDy=0;entryX=0;entryY=0;entryDx=0;entryDy=0;" edge="1" parent="1" source="u3rFeUjqHD8T7D-4szF2-42" target="u3rFeUjqHD8T7D-4szF2-42">
          <mxGeometry width="50" height="50" relative="1" as="geometry">
            <mxPoint x="552.5" y="930" as="sourcePoint" />
            <mxPoint x="602.5" y="880" as="targetPoint" />
          </mxGeometry>
        </mxCell>
        <mxCell id="u3rFeUjqHD8T7D-4szF2-54" value="" style="endArrow=none;dashed=1;html=1;rounded=0;exitX=0;exitY=1;exitDx=0;exitDy=0;" edge="1" parent="1" source="u3rFeUjqHD8T7D-4szF2-42">
          <mxGeometry width="50" height="50" relative="1" as="geometry">
            <mxPoint x="670" y="1010" as="sourcePoint" />
            <mxPoint x="720" y="960" as="targetPoint" />
          </mxGeometry>
        </mxCell>
        <mxCell id="u3rFeUjqHD8T7D-4szF2-55" value="" style="endArrow=none;html=1;rounded=0;" edge="1" parent="1">
          <mxGeometry width="50" height="50" relative="1" as="geometry">
            <mxPoint x="220" y="840" as="sourcePoint" />
            <mxPoint x="660" y="840" as="targetPoint" />
          </mxGeometry>
        </mxCell>
        <mxCell id="u3rFeUjqHD8T7D-4szF2-56" value="" style="endArrow=classic;html=1;rounded=0;" edge="1" parent="1">
          <mxGeometry width="50" height="50" relative="1" as="geometry">
            <mxPoint x="220" y="840" as="sourcePoint" />
            <mxPoint x="220" y="880" as="targetPoint" />
          </mxGeometry>
        </mxCell>
        <mxCell id="u3rFeUjqHD8T7D-4szF2-57" value="" style="endArrow=classic;html=1;rounded=0;" edge="1" parent="1">
          <mxGeometry width="50" height="50" relative="1" as="geometry">
            <mxPoint x="660" y="840" as="sourcePoint" />
            <mxPoint x="660" y="880" as="targetPoint" />
          </mxGeometry>
        </mxCell>
      </root>
    </mxGraphModel>
  </diagram>
</mxfile>
